<svg width="318" height="279" fill="none" xmlns="http://www.w3.org/2000/svg"><g clip-path="url(#clip0)"><mask id="a" maskUnits="userSpaceOnUse" x="3" y="1" width="311" height="277"><path fill-rule="evenodd" clip-rule="evenodd" d="M309.34 124.5a30 30 0 0 1 0 30l-62.43 108.131a30 30 0 0 1-25.981 15H96.07a30 30 0 0 1-25.98-15L7.66 154.5a30 30 0 0 1 0-30L70.09 16.369a30 30 0 0 1 25.98-15H220.93a30 30 0 0 1 25.981 15L309.34 124.5z" fill="#fff"/></mask><g mask="url(#a)"><path fill="#FFE01C" d="M-58.5 -12H396.5V291H-58.5z"/></g><path d="M187.526 173.765a3.154 3.154 0 0 0-1.548-2.434l-11.14-6.432v-12.874a3.127 3.127 0 0 0-1.564-2.708l-12.709-7.333a3.124 3.124 0 0 0-3.124-.001l-12.713 7.335a3.126 3.126 0 0 0-1.562 2.707v12.873l-11.147 6.432a3.124 3.124 0 0 0-1.564 2.707v14.678c0 1.117.596 2.149 1.564 2.707l12.709 7.334a3.127 3.127 0 0 0 3.125 0l11.149-6.433 11.15 6.434a3.117 3.117 0 0 0 3.123-.001l12.703-7.334a3.163 3.163 0 0 0 1.562-2.707v-14.678c0-.089-.006-.183-.014-.272zm-38.11-19.936l9.585-5.531 9.587 5.532v11.068l-9.586 5.531-9.586-5.53v-11.07zm-3.125 38.612l-9.586-5.531v-11.067l9.586-5.532 9.586 5.531v11.069l-9.586 5.53zm25.421.001l-9.585-5.531v-11.07l9.585-5.53 9.578 5.53v11.07l-9.578 5.531z" fill="#000"/><path d="M230.057 129.107c2.753-4.198 2.378-9.89-.977-14.857l-13.62-20.166V82.07c4.691-1.358 8.132-5.69 8.132-10.812C223.591 65.05 218.542 60 212.335 60H105.66c-6.207 0-11.257 5.05-11.257 11.257 0 5.122 3.441 9.454 8.132 10.811v12.016l-13.62 20.167c-3.353 4.968-3.723 10.663-.968 14.861.269.409.566.79.88 1.152a94.56 94.56 0 0 0-2.697 22.478c0 13.271 2.654 25.955 7.89 37.7 5.008 11.237 12.328 21.196 21.17 28.802.567.488 1.29.756 2.038.756h83.547c.748 0 1.471-.268 2.038-.756 8.84-7.605 16.159-17.565 21.166-28.802 5.232-11.744 7.885-24.428 7.885-37.7 0-7.645-.907-15.194-2.693-22.469.318-.364.614-.752.886-1.166zm-129.404-57.85a5.013 5.013 0 0 1 5.007-5.007h106.675a5.012 5.012 0 0 1 5.006 5.007 5.012 5.012 0 0 1-5.006 5.006h-39.32a3.125 3.125 0 0 0 0 6.25h36.195v9.402H108.785v-9.402h36.168a3.125 3.125 0 0 0 0-6.25H105.66a5.013 5.013 0 0 1-5.007-5.006zm98.949 142.493h-81.2c-16.553-14.707-26.022-36.871-26.022-61.008 0-6.448.697-12.842 2.069-19.06 1.67.415 3.479.474 5.331.128 2.797-.527 4.964-2.114 6.807-4.078 3 2.68 6.637 4.165 10.383 4.165h.006c3.792-.002 7.472-1.525 10.489-4.27 3.027 2.8 6.662 4.308 10.513 4.31h.005c3.855 0 7.496-1.51 10.528-4.315 3.009 2.724 6.69 4.235 10.491 4.235 3.801 0 7.48-1.51 10.489-4.234 3.028 2.803 6.665 4.312 10.517 4.314h.006c3.853 0 7.492-1.509 10.523-4.311 3.019 2.747 6.702 4.271 10.495 4.271 3.746 0 7.384-1.486 10.38-4.167 1.847 1.965 4.015 3.553 6.808 4.081.817.152 1.626.226 2.418.226 1.004 0 1.979-.121 2.911-.353a88.256 88.256 0 0 1 2.065 19.058c.001 24.142-9.465 46.305-26.012 61.008zm25.228-88.07c-1.099 1.677-3.141 2.421-5.458 1.988-1.612-.305-3.106-1.584-5.33-4.564a3.124 3.124 0 0 0-2.505-1.257h-.001c-.987 0-1.916.467-2.505 1.259-2.181 2.928-5.021 4.541-7.999 4.541-2.978 0-5.819-1.613-8-4.541a3.123 3.123 0 0 0-2.504-1.259h-.002c-.986 0-1.915.466-2.505 1.256-2.206 2.956-5.049 4.584-8.008 4.584h-.003c-2.957-.001-5.797-1.628-7.998-4.582a3.126 3.126 0 0 0-5.012 0c-2.163 2.903-5.004 4.502-8 4.502-2.995 0-5.836-1.599-7.999-4.502a3.124 3.124 0 0 0-2.505-1.257h-.001c-.987 0-1.915.465-2.505 1.256-2.206 2.956-5.05 4.584-8.009 4.584h-.003c-2.956-.002-5.797-1.629-7.998-4.583a3.123 3.123 0 0 0-5.013.002c-2.179 2.927-5.019 4.539-7.996 4.541h-.003c-2.98 0-5.824-1.614-8.008-4.543a3.126 3.126 0 0 0-2.506-1.257h-.002a3.126 3.126 0 0 0-2.506 1.26c-2.212 2.977-3.705 4.255-5.32 4.559-2.315.431-4.356-.309-5.456-1.984-1.368-2.085-1.023-5.051.922-7.935l13.225-19.582h20.849l-7.238 10.226a3.125 3.125 0 0 0 5.102 3.611l9.793-13.837h20.051v12.031a3.125 3.125 0 1 0 6.25 0V98.166h20.051l9.793 13.837a3.123 3.123 0 0 0 4.357.745 3.125 3.125 0 0 0 .745-4.356l-7.238-10.226h20.84l13.226 19.583c1.951 2.883 2.298 5.848.932 7.931z" fill="#000"/><path d="M158.984 82.513h.018c1.726 0 3.116-1.399 3.116-3.125a3.133 3.133 0 0 0-3.134-3.125 3.126 3.126 0 0 0 0 6.25z" fill="#000"/></g><defs><clipPath id="clip0"><path fill="#fff" d="M0 0H318V279H0z"/></clipPath></defs></svg>